<svg enable-background="new 0 0 20 20" viewBox="0 0 20 20" xmlns="http://www.w3.org/2000/svg"><path d="m5.3 8.3c.9-2.6 3.7-3.9 6.3-3 1.1.4 2 1.1 2.6 2l-.6.3c-.2.1-.3.3-.2.5 0 .1.1.1.1.2l2.3 1.4c.2.1.4 0 .5-.1 0 0 0-.1.1-.2l.3-2.7c0-.2-.1-.4-.4-.4-.1 0-.1 0-.2 0l-.6.3c-1.8-3-5.7-4-8.8-2.2-1.3.9-2.3 2.2-2.8 3.7-.1.2 0 .4.2.4h.1.8c.2.1.3 0 .3-.2z"/><path d="m10 16.4c2.8 0 5.3-1.8 6.1-4.5.1-.2 0-.4-.2-.4h-.1-.8c-.1 0-.3.1-.3.2-.9 2.6-3.7 3.9-6.3 3-1.1-.4-2-1.1-2.5-2l.6-.3c.2-.1.3-.3.2-.5 0-.1-.1-.1-.1-.2l-2.3-1.4c-.2-.1-.4 0-.5.1 0 0 0 .1-.1.2l-.2 2.7c0 .2.1.4.4.4h.2l.6-.3c1 1.8 3.1 3 5.3 3z"/><circle cx="10" cy="10" r="2.1"/></svg>