<svg viewBox="0 0 87.52 81.49" xmlns="http://www.w3.org/2000/svg"><g fill="#eff5ec"><path d="m35.28 66.39h-17.28a1.42 1.42 0 0 0 -.6.2l-17 13.1a1 1 0 0 0 -.3 1.1 1.07 1.07 0 0 0 .9.7h85.6a1 1 0 0 0 .9-.7 1.07 1.07 0 0 0 -.3-1.1l-16.8-13.1a1.42 1.42 0 0 0 -.6-.2h-17.32m-1.9 2h2.3l4.3 11.1h-26.7l4.3-11.1h2.4m32.3 0 14.4 11.1h-24.5l-4.3-11.1zm-36.8 0-4.3 11.1h-24.38l14.4-11.1z"/><path d="m43.88 0a29.73 29.73 0 0 0 -29.73 29.73 29.73 29.73 0 0 0 19.61 27.92l10.12 17.54 10.12-17.55a29.71 29.71 0 0 0 -10.12-57.64zm0 51.78a22.05 22.05 0 1 1 22.05-22 22 22 0 0 1 -22.05 22z"/><circle cx="43.76" cy="29.73" r="12.64"/></g></svg>